grf.mot																		
version=1																		
nRows=22
nColumns=31
inDegrees=yes																		
endheader																		
time	ground_force_vx	ground_force_vy	ground_force_vz	ground_force_px	ground_force_py	ground_force_pz	1_ground_force_vx	1_ground_force_vy	1_ground_force_vz	1_ground_force_px	1_ground_force_py	1_ground_force_pz	ground_torque_x	ground_torque_y	ground_torque_z	1_ground_torque_x	1_ground_torque_y	1_ground_torque_z	apo_force_vx	apo_force_vy	apo_force_vz	apo_force_px	apo_force_py	apo_force_pz	1_apo_force_vx	1_apo_force_vy	1_apo_force_vz	1_apo_force_px	1_apo_force_py	1_apo_force_pz	
1.24460000000000	0.00000000000000	0.00000000000000	0.00000000000000	0.00000000000000	0.00000000000000	0.00000000000000	-106.18600000000001	932.13800000000003	89.63760000000001	-0.00024116900000	0.00000000000000	-0.10931700000000	0.00000000000000	0.00000000000000	0.00000000000000	0.00000000000000	8.65080000000000	0.00000000000000	-6.66660000000000	-1.01210000000000	0.00000000000000	0.00000000000000	-0.35000000000000	0.00000000000000	5.86040000000000	4.12020000000000	0.00000000000000	0.00000000000000	-0.35000000000000	0.00000000000000	
1.24960000000000	0.00000000000000	0.00000000000000	0.00000000000000	0.00000000000000	0.00000000000000	0.00000000000000	-96.75130000000000	914.47199999999998	87.84269999999999	-0.00896424000000	0.00000000000000	-0.11010500000000	0.00000000000000	0.00000000000000	0.00000000000000	0.00000000000000	8.24062000000000	0.00000000000000	-6.78860000000000	-1.18080000000000	0.00000000000000	0.00000000000000	-0.35000000000000	0.00000000000000	5.97040000000000	4.09700000000000	0.00000000000000	0.00000000000000	-0.35000000000000	0.00000000000000	
1.25460000000000	0.00000000000000	0.00000000000000	0.00000000000000	0.00000000000000	0.00000000000000	0.00000000000000	-87.45370000000000	895.24500000000000	85.86010000000000	-0.01699150000000	0.00000000000000	-0.11085100000000	0.00000000000000	0.00000000000000	0.00000000000000	0.00000000000000	7.82132000000000	0.00000000000000	-6.92880000000000	-1.35950000000000	0.00000000000000	0.00000000000000	-0.35000000000000	0.00000000000000	6.11090000000000	4.09010000000000	0.00000000000000	0.00000000000000	-0.35000000000000	0.00000000000000	
1.25960000000000	0.00000000000000	0.00000000000000	0.00000000000000	0.00000000000000	0.00000000000000	0.00000000000000	-78.38640000000000	874.68299999999999	83.73830000000000	-0.02432460000000	0.00000000000000	-0.11153800000000	0.00000000000000	0.00000000000000	0.00000000000000	0.00000000000000	7.40080000000000	0.00000000000000	-7.08460000000000	-1.54870000000000	0.00000000000000	0.00000000000000	-0.35000000000000	0.00000000000000	6.28030000000000	4.09720000000000	0.00000000000000	0.00000000000000	-0.35000000000000	0.00000000000000	
1.26460000000000	0.00000000000000	0.00000000000000	0.00000000000000	0.00000000000000	0.00000000000000	0.00000000000000	-69.63070000000000	853.01900000000001	81.52190000000000	-0.03098860000000	0.00000000000000	-0.11215100000000	0.00000000000000	0.00000000000000	0.00000000000000	0.00000000000000	6.98618000000000	0.00000000000000	-7.25040000000000	-1.74820000000000	0.00000000000000	0.00000000000000	-0.35000000000000	0.00000000000000	6.47360000000000	4.11410000000000	0.00000000000000	0.00000000000000	-0.35000000000000	0.00000000000000	
1.26960000000000	0.00000000000000	0.00000000000000	0.00000000000000	0.00000000000000	0.00000000000000	0.00000000000000	-61.25550000000000	830.48400000000004	79.25109999999999	-0.03702900000000	0.00000000000000	-0.11267900000000	0.00000000000000	0.00000000000000	0.00000000000000	0.00000000000000	6.58367000000000	0.00000000000000	-7.41750000000000	-1.95610000000000	0.00000000000000	0.00000000000000	-0.35000000000000	0.00000000000000	6.68290000000000	4.13470000000000	0.00000000000000	0.00000000000000	-0.35000000000000	0.00000000000000	
1.27460000000000	0.00000000000000	0.00000000000000	0.00000000000000	0.00000000000000	0.00000000000000	0.00000000000000	-53.31700000000000	807.30799999999999	76.96040000000001	-0.04251010000000	0.00000000000000	-0.11311600000000	0.00000000000000	0.00000000000000	0.00000000000000	0.00000000000000	6.19849000000000	0.00000000000000	-7.57400000000000	-2.16920000000000	0.00000000000000	0.00000000000000	-0.35000000000000	0.00000000000000	6.89680000000000	4.15160000000000	0.00000000000000	0.00000000000000	-0.35000000000000	0.00000000000000	
1.27960000000000	0.00000000000000	0.00000000000000	0.00000000000000	0.00000000000000	0.00000000000000	0.00000000000000	-45.85890000000000	783.71500000000003	74.67860000000000	-0.04751150000000	0.00000000000000	-0.11345900000000	0.00000000000000	0.00000000000000	0.00000000000000	0.00000000000000	5.83481000000000	0.00000000000000	-7.70570000000000	-2.38230000000000	0.00000000000000	0.00000000000000	-0.35000000000000	0.00000000000000	7.10110000000000	4.15640000000000	0.00000000000000	0.00000000000000	-0.35000000000000	0.00000000000000	
1.28460000000000	0.00000000000000	0.00000000000000	0.00000000000000	0.00000000000000	0.00000000000000	0.00000000000000	-38.91270000000000	759.92200000000003	72.42829999999999	-0.05212510000000	0.00000000000000	-0.11371000000000	0.00000000000000	0.00000000000000	0.00000000000000	0.00000000000000	5.49575000000000	0.00000000000000	-7.79730000000000	-2.58830000000000	0.00000000000000	0.00000000000000	-0.35000000000000	0.00000000000000	7.27990000000000	4.14050000000000	0.00000000000000	0.00000000000000	-0.35000000000000	0.00000000000000	
1.28960000000000	0.00000000000000	0.00000000000000	0.00000000000000	0.00000000000000	0.00000000000000	0.00000000000000	-32.49830000000000	736.13599999999997	70.22590000000000	-0.05645140000000	0.00000000000000	-0.11387100000000	0.00000000000000	0.00000000000000	0.00000000000000	0.00000000000000	5.18334000000000	0.00000000000000	-7.83350000000000	-2.77900000000000	0.00000000000000	0.00000000000000	-0.35000000000000	0.00000000000000	7.41640000000000	4.09600000000000	0.00000000000000	0.00000000000000	-0.35000000000000	0.00000000000000	
1.29460000000000	0.00000000000000	0.00000000000000	0.00000000000000	0.00000000000000	0.00000000000000	0.00000000000000	-26.62500000000000	712.54999999999995	68.08230000000000	-0.06059590000000	0.00000000000000	-0.11395200000000	0.00000000000000	0.00000000000000	0.00000000000000	0.00000000000000	4.89863000000000	0.00000000000000	-7.80040000000000	-2.94510000000000	0.00000000000000	0.00000000000000	-0.35000000000000	0.00000000000000	7.49410000000000	4.01610000000000	0.00000000000000	0.00000000000000	-0.35000000000000	0.00000000000000	
1.29960000000000	0.00000000000000	0.00000000000000	0.00000000000000	0.00000000000000	0.00000000000000	0.00000000000000	-21.29200000000000	689.34299999999996	66.00260000000000	-0.06466550000000	0.00000000000000	-0.11396200000000	0.00000000000000	0.00000000000000	0.00000000000000	0.00000000000000	4.64170000000000	0.00000000000000	-7.68640000000000	-3.07690000000000	0.00000000000000	0.00000000000000	-0.35000000000000	0.00000000000000	7.49830000000000	3.89610000000000	0.00000000000000	0.00000000000000	-0.35000000000000	0.00000000000000	
1.30460000000000	0.00000000000000	0.00000000000000	0.00000000000000	0.00000000000000	0.00000000000000	0.00000000000000	-16.49030000000000	666.67800000000000	63.98740000000000	-0.06876470000000	0.00000000000000	-0.11391300000000	0.00000000000000	0.00000000000000	0.00000000000000	0.00000000000000	4.41179000000000	0.00000000000000	-7.48500000000000	-3.16600000000000	0.00000000000000	0.00000000000000	-0.35000000000000	0.00000000000000	7.41820000000000	3.73380000000000	0.00000000000000	0.00000000000000	-0.35000000000000	0.00000000000000	
1.30960000000000	0.00000000000000	0.00000000000000	0.00000000000000	0.00000000000000	0.00000000000000	0.00000000000000	-12.20280000000000	644.70399999999995	62.03300000000000	-0.07299240000000	0.00000000000000	-0.11381900000000	0.00000000000000	0.00000000000000	0.00000000000000	0.00000000000000	4.20738000000000	0.00000000000000	-7.19600000000000	-3.20600000000000	0.00000000000000	0.00000000000000	-0.35000000000000	0.00000000000000	7.24900000000000	3.53100000000000	0.00000000000000	0.00000000000000	-0.35000000000000	0.00000000000000	
1.31460000000000	0.00000000000000	0.00000000000000	0.00000000000000	0.00000000000000	0.00000000000000	0.00000000000000	-8.40662000000000	623.54999999999995	60.13300000000000	-0.07743850000000	0.00000000000000	-0.11369400000000	0.00000000000000	0.00000000000000	0.00000000000000	0.00000000000000	4.02636000000000	0.00000000000000	-6.82530000000000	-3.19370000000000	0.00000000000000	0.00000000000000	-0.35000000000000	0.00000000000000	6.99170000000000	3.29230000000000	0.00000000000000	0.00000000000000	-0.35000000000000	0.00000000000000	
1.31960000000000	0.00000000000000	0.00000000000000	0.00000000000000	0.00000000000000	0.00000000000000	0.00000000000000	-5.07322000000000	603.33100000000002	58.27850000000000	-0.08218160000000	0.00000000000000	-0.11355200000000	0.00000000000000	0.00000000000000	0.00000000000000	0.00000000000000	3.86611000000000	0.00000000000000	-6.38380000000000	-3.12850000000000	0.00000000000000	0.00000000000000	-0.35000000000000	0.00000000000000	6.65260000000000	3.02480000000000	0.00000000000000	0.00000000000000	-0.35000000000000	0.00000000000000	
1.32460000000000	0.00000000000000	0.00000000000000	0.00000000000000	0.00000000000000	0.00000000000000	0.00000000000000	-2.17015000000000	584.14700000000005	56.45960000000000	-0.08728630000000	0.00000000000000	-0.11340600000000	0.00000000000000	0.00000000000000	0.00000000000000	0.00000000000000	3.72368000000000	0.00000000000000	-5.88640000000000	-3.01350000000000	0.00000000000000	0.00000000000000	-0.35000000000000	0.00000000000000	6.24290000000000	2.73710000000000	0.00000000000000	0.00000000000000	-0.35000000000000	0.00000000000000	
1.32960000000000	0.00000000000000	0.00000000000000	0.00000000000000	0.00000000000000	0.00000000000000	0.00000000000000	0.33820000000000	566.08100000000002	54.66620000000000	-0.09280150000000	0.00000000000000	-0.11327100000000	0.00000000000000	0.00000000000000	0.00000000000000	0.00000000000000	3.59590000000000	0.00000000000000	-5.35060000000000	-2.85450000000000	0.00000000000000	0.00000000000000	-0.35000000000000	0.00000000000000	5.77740000000000	2.43910000000000	0.00000000000000	0.00000000000000	-0.35000000000000	0.00000000000000	
1.33460000000000	0.00000000000000	0.00000000000000	0.00000000000000	0.00000000000000	0.00000000000000	0.00000000000000	2.48969000000000	549.20600000000002	52.88900000000000	-0.09875920000000	0.00000000000000	-0.11315700000000	0.00000000000000	0.00000000000000	0.00000000000000	0.00000000000000	3.47956000000000	0.00000000000000	-4.79530000000000	-2.65970000000000	0.00000000000000	0.00000000000000	-0.35000000000000	0.00000000000000	5.27340000000000	2.14020000000000	0.00000000000000	0.00000000000000	-0.35000000000000	0.00000000000000	
1.33960000000000	0.00000000000000	0.00000000000000	0.00000000000000	0.00000000000000	0.00000000000000	0.00000000000000	4.32366000000000	533.58299999999997	51.12070000000000	-0.10517400000000	0.00000000000000	-0.11307300000000	0.00000000000000	0.00000000000000	0.00000000000000	0.00000000000000	3.37145000000000	0.00000000000000	-4.23810000000000	-2.43830000000000	0.00000000000000	0.00000000000000	-0.35000000000000	0.00000000000000	4.74820000000000	1.84930000000000	0.00000000000000	0.00000000000000	-0.35000000000000	0.00000000000000	
1.34460000000000	0.00000000000000	0.00000000000000	0.00000000000000	0.00000000000000	0.00000000000000	0.00000000000000	5.88029000000000	519.26400000000001	49.35630000000000	-0.11204100000000	0.00000000000000	-0.11302700000000	0.00000000000000	0.00000000000000	0.00000000000000	0.00000000000000	3.26856000000000	0.00000000000000	-3.69480000000000	-2.20020000000000	0.00000000000000	0.00000000000000	-0.35000000000000	0.00000000000000	4.21830000000000	1.57360000000000	0.00000000000000	0.00000000000000	-0.35000000000000	0.00000000000000	
1.34960000000000	0.00000000000000	0.00000000000000	0.00000000000000	0.00000000000000	0.00000000000000	0.00000000000000	7.20015000000000	506.29500000000002	47.59400000000000	-0.11934100000000	0.00000000000000	-0.11302200000000	0.00000000000000	0.00000000000000	0.00000000000000	0.00000000000000	3.16812000000000	0.00000000000000	-3.17770000000000	-1.95450000000000	0.00000000000000	0.00000000000000	-0.35000000000000	0.00000000000000	3.69760000000000	1.31820000000000	0.00000000000000	0.00000000000000	-0.35000000000000	0.00000000000000	
